<svg width="100" height="74" viewBox="0 0 100 74" fill="none" xmlns="http://www.w3.org/2000/svg">
<path d="M98.9498 6.17398C97.8915 5.65732 97.4331 6.64482 96.8165 7.14898C96.604 7.31148 96.4248 7.52399 96.2456 7.71565C94.6956 9.36982 92.8873 10.4532 90.5248 10.324C87.0706 10.1323 84.1206 11.2157 81.5123 13.8573C80.9581 10.599 79.1165 8.65732 76.3165 7.40732C74.8498 6.75732 73.3665 6.11148 72.3373 4.69898C71.6206 3.69482 71.4248 2.57398 71.0665 1.47398C70.8373 0.807317 70.6081 0.12815 69.8456 0.01565C69.0123 -0.113517 68.6873 0.582317 68.3623 1.16565C67.0581 3.54898 66.554 6.17398 66.604 8.83232C66.7165 14.8157 69.2415 19.5823 74.2623 22.9698C74.8331 23.3573 74.979 23.749 74.7998 24.3157C74.4581 25.4823 74.0498 26.6157 73.6915 27.7865C73.4623 28.5323 73.1206 28.6907 72.3206 28.3698C69.6175 27.2081 67.1621 25.5391 65.0873 23.4531C61.5165 20.0031 58.2915 16.1948 54.2665 13.2115C53.3339 12.5224 52.3763 11.8678 51.3956 11.249C47.2915 7.26148 51.9373 3.98648 53.0123 3.59898C54.1373 3.19065 53.3998 1.79898 49.7665 1.81565C46.1331 1.83232 42.8081 3.04482 38.5706 4.66565C37.9409 4.90695 37.2931 5.09783 36.6331 5.23648C32.6732 4.49037 28.6233 4.34709 24.6206 4.81148C16.7665 5.68648 10.4956 9.40315 5.88312 15.7407C0.341457 23.3573 -0.96271 32.0157 0.633124 41.0407C2.31229 50.5573 7.17062 58.4365 14.6331 64.5948C22.3748 70.9823 31.2873 74.1115 41.4581 73.5115C47.6331 73.1573 54.5123 72.3282 62.2665 65.7615C64.2248 66.7365 66.2748 67.124 69.6831 67.4157C72.3081 67.6615 74.8331 67.2907 76.7873 66.8823C79.8498 66.2323 79.6373 63.3948 78.5331 62.8782C69.554 58.6948 71.5248 60.399 69.729 59.0198C74.2956 53.6198 81.1706 48.0115 83.8623 29.8407C84.0706 28.3948 83.8915 27.4865 83.8623 26.3198C83.8456 25.6115 84.0081 25.3323 84.8206 25.2532C87.0749 25.0193 89.2618 24.347 91.2581 23.274C97.0748 20.0948 99.4248 14.8782 99.979 8.61982C100.062 7.66148 99.9623 6.67815 98.9498 6.17398ZM48.254 62.499C39.5498 55.6573 35.329 53.4032 33.5873 53.499C31.954 53.599 32.2498 55.4615 32.6081 56.6782C32.9831 57.8782 33.4706 58.7032 34.154 59.7573C34.629 60.4532 34.954 61.4907 33.6831 62.2698C30.879 64.0032 26.0081 61.6865 25.779 61.574C20.1081 58.2323 15.3623 53.824 12.0248 47.7948C8.79979 41.9907 6.92479 35.7657 6.61646 29.1198C6.53312 27.5115 7.00396 26.9448 8.60396 26.6532C10.7044 26.2512 12.8566 26.1963 14.9748 26.4907C23.8581 27.7907 31.4165 31.7615 37.7581 38.049C41.3748 41.6323 44.1123 45.9115 46.9331 50.0948C49.9331 54.5365 53.1581 58.7698 57.2665 62.2365C58.7165 63.4532 59.8706 64.3782 60.979 65.0573C57.6373 65.4323 52.0623 65.5157 48.254 62.499ZM52.4206 35.6657C52.4199 35.4587 52.4696 35.2546 52.5654 35.0711C52.6611 34.8877 52.8002 34.7303 52.9704 34.6125C53.1406 34.4948 53.337 34.4203 53.5425 34.3954C53.7479 34.3706 53.9564 34.3961 54.1498 34.4698C54.3963 34.5583 54.6091 34.7214 54.7584 34.9365C54.9078 35.1516 54.9864 35.408 54.9831 35.6698C54.9837 35.839 54.9506 36.0066 54.8857 36.1629C54.8208 36.3192 54.7255 36.461 54.6053 36.58C54.4851 36.6991 54.3424 36.793 54.1855 36.8564C54.0286 36.9197 53.8606 36.9512 53.6915 36.949C53.5235 36.9496 53.3572 36.9166 53.2022 36.8521C53.0471 36.7876 52.9065 36.6929 52.7886 36.5734C52.6706 36.4539 52.5777 36.312 52.5152 36.1562C52.4528 36.0003 52.4179 35.8335 52.4206 35.6657ZM65.379 42.3157C64.5456 42.6532 63.7165 42.9448 62.9206 42.9823C61.7233 43.0241 60.5485 42.6501 59.5956 41.924C58.454 40.9657 57.6373 40.4323 57.2956 38.7657C57.1778 37.9512 57.2004 37.1225 57.3623 36.3157C57.654 34.9532 57.329 34.0782 56.3665 33.2865C55.5873 32.6365 54.5915 32.4573 53.4998 32.4573C53.126 32.4356 52.763 32.3241 52.4415 32.1323C51.9831 31.9073 51.6081 31.3407 51.9665 30.6407C52.0831 30.4157 52.6331 29.8657 52.7665 29.7657C54.2498 28.924 55.9623 29.199 57.5415 29.8323C59.0081 30.4323 60.1165 31.5323 61.7123 33.0907C63.3415 34.9698 63.6373 35.4907 64.5665 36.899C65.2998 38.0032 65.9665 39.1365 66.4206 40.4323C66.6998 41.2448 66.3415 41.9073 65.379 42.3157Z" fill="#4D6BFE"/>
</svg>
