<svg width="100" height="93" viewBox="0 0 100 93" fill="none" xmlns="http://www.w3.org/2000/svg">
<path d="M50 92.1175L68.4129 35.4487H31.5867L49.9996 92.1175H50Z" fill="#E24329"/>
<path d="M50.0001 92.1171L31.5868 35.4482H5.78198L50.0001 92.1171Z" fill="#FC6D26"/>
<path d="M5.78194 35.4482L0.186614 52.6697C-0.0621712 53.4353 -0.0622055 54.26 0.186516 55.0256C0.435238 55.7913 0.919947 56.4585 1.57118 56.9317L50 92.1174L5.78155 35.4486L5.78194 35.4482Z" fill="#FCA326"/>
<path d="M5.78198 35.4485H31.5868L20.4974 1.31709C19.9267 -0.439224 17.4421 -0.438833 16.8718 1.31709L5.78198 35.4485Z" fill="#E24329"/>
<path d="M50.0001 92.1171L68.4131 35.4482H94.2183L49.9998 92.1171H50.0001Z" fill="#FC6D26"/>
<path d="M94.218 35.4482L99.8134 52.6697C100.062 53.4354 100.062 54.2601 99.8133 55.0257C99.5645 55.7913 99.0797 56.4585 98.4284 56.9317L50 92.1174L94.218 35.4486V35.4482Z" fill="#FCA326"/>
<path d="M94.2183 35.4485H68.4131L79.5029 1.31709C80.0736 -0.439224 82.5582 -0.438833 83.1285 1.31709L94.2183 35.4485Z" fill="#E24329"/>
</svg>
