<svg width="100" height="100" viewBox="0 0 100 100" fill="none" xmlns="http://www.w3.org/2000/svg">
<g clip-path="url(#clip0_867_7276)">
<path d="M50 100C77.6142 100 100 77.6143 100 50C100 22.3858 77.6142 0 50 0C22.3858 0 0 22.3858 0 50C0 77.6143 22.3858 100 50 100Z" fill="#5C2D91"/>
<path opacity="0.1" d="M16.7355 12.6851C11.6526 17.2145 7.54833 22.7342 4.67414 28.9059C1.79995 35.0776 0.216439 41.7713 0.0206758 48.5766C-0.175088 55.382 1.02102 62.1556 3.53568 68.4823C6.05034 74.8091 9.83057 80.5556 14.6447 85.3697C19.4588 90.1838 25.2053 93.964 31.532 96.4787C37.8587 98.9933 44.6324 100.189 51.4377 99.9937C58.2431 99.7979 64.9367 98.2144 71.1084 95.3402C77.2802 92.466 82.7999 88.3617 87.3293 83.2788L16.7355 12.6851Z" fill="white"/>
<path d="M11.5627 58.2041C11.271 58.2087 10.9816 58.1528 10.7126 58.0398C10.4437 57.9268 10.2011 57.7592 10.0002 57.5477C9.79377 57.3437 9.63063 57.1002 9.52055 56.8316C9.41047 56.5631 9.35572 56.275 9.35956 55.9848C9.35748 55.6949 9.41304 55.4074 9.52302 55.1391C9.633 54.8708 9.7952 54.627 10.0002 54.4219C10.1991 54.2068 10.441 54.0358 10.7101 53.9201C10.9793 53.8043 11.2697 53.7463 11.5627 53.7499C11.8552 53.7492 12.1448 53.8085 12.4135 53.924C12.6823 54.0396 12.9245 54.2091 13.1252 54.4219C13.3337 54.6252 13.4993 54.8682 13.612 55.1367C13.7247 55.4052 13.7824 55.6936 13.7814 55.9848C13.7842 56.2763 13.7274 56.5653 13.6145 56.834C13.5017 57.1027 13.3352 57.3456 13.1252 57.5477C12.9226 57.757 12.6797 57.9231 12.4111 58.0359C12.1426 58.1487 11.854 58.2059 11.5627 58.2041Z" fill="white"/>
<path d="M42.6094 57.814H38.5156L23.875 35.094C23.5103 34.5343 23.2065 33.9371 22.9687 33.3127H22.8437C22.9829 34.6099 23.0351 35.915 23 37.2192V57.814H19.6719V29.3281H24L38.25 51.6418C38.8437 52.5689 39.2292 53.2044 39.4062 53.5481H39.4844C39.3195 52.1586 39.2516 50.7593 39.2812 49.3604V29.3281H42.6094V57.814Z" fill="white"/>
<path d="M65.1406 57.814H50V29.3281H64.4375V32.3439H53.4063V41.8132H63.6875V44.8133H53.4063V54.6888H65.1563L65.1406 57.814Z" fill="white"/>
<path d="M87.5 32.3439H79.2187V57.814H75.8906V32.3439H67.7031V29.3281H87.5V32.3439Z" fill="white"/>
<path d="M40.8127 77.1883C39.6847 77.7346 38.4404 77.9974 37.1877 77.9539C36.3554 77.9914 35.5246 77.8505 34.7512 77.5406C33.9777 77.2306 33.2795 76.7589 32.7034 76.157C31.5553 74.8717 30.9504 73.1913 31.0159 71.4692C30.9738 70.5368 31.1195 69.6054 31.4443 68.7303C31.7691 67.8553 32.2663 67.0544 32.9065 66.3752C33.5304 65.736 34.2804 65.2337 35.1089 64.9001C35.9374 64.5666 36.8263 64.409 37.719 64.4376C38.7873 64.4011 39.8515 64.5873 40.844 64.9845V66.5471C39.8885 66.0181 38.811 65.7487 37.719 65.7658C37.0305 65.7464 36.346 65.876 35.7122 66.1457C35.0785 66.4154 34.5105 66.8188 34.0471 67.3284C33.0726 68.4386 32.5683 69.8844 32.6409 71.3598C32.5679 72.7575 33.0382 74.1293 33.9534 75.1882C34.3923 75.6602 34.9282 76.0317 35.5243 76.2772C36.1203 76.5226 36.7624 76.6362 37.4065 76.6101C38.6062 76.6415 39.791 76.3385 40.8284 75.7351L40.8127 77.1883Z" fill="#F2F2F2"/>
<path d="M47.2029 77.9537C46.5809 77.9739 45.9619 77.8601 45.3877 77.6202C44.8135 77.3802 44.2975 77.0197 43.8748 76.563C43.0204 75.6095 42.5768 74.3573 42.6404 73.0785C42.6014 72.4085 42.6959 71.7375 42.9186 71.1044C43.1412 70.4713 43.4875 69.8888 43.9373 69.3908C44.3963 68.9428 44.9424 68.5937 45.5417 68.3653C46.1411 68.1368 46.7809 68.0338 47.4217 68.0626C48.0273 68.0303 48.6328 68.1295 49.1965 68.3534C49.7602 68.5773 50.2688 68.9205 50.6873 69.3595C51.5177 70.3604 51.9367 71.6396 51.8591 72.9378C51.9247 74.2554 51.4702 75.546 50.5935 76.5318C50.1628 76.9973 49.6373 77.3652 49.0524 77.6104C48.4675 77.8557 47.8368 77.9728 47.2029 77.9537ZM47.3123 69.4064C46.8825 69.3883 46.4541 69.4674 46.0591 69.6379C45.6642 69.8083 45.3127 70.0657 45.031 70.3908C44.4298 71.165 44.13 72.1311 44.1873 73.1097C44.1327 74.0592 44.4335 74.995 45.031 75.7349C45.3157 76.0554 45.668 76.3086 46.0626 76.4762C46.4571 76.6437 46.884 76.7214 47.3123 76.7037C47.7316 76.7284 48.151 76.6568 48.5383 76.4943C48.9256 76.3317 49.2705 76.0827 49.5466 75.7661C50.1147 74.9898 50.3913 74.0383 50.3279 73.0785C50.3897 72.114 50.1134 71.1581 49.5466 70.3752C49.2744 70.0521 48.9309 69.7964 48.5433 69.6283C48.1556 69.4602 47.7342 69.3843 47.3123 69.4064Z" fill="#F2F2F2"/>
<path d="M59.1562 69.8751C58.8188 69.654 58.4181 69.5497 58.0156 69.5782C57.7009 69.5897 57.3937 69.6783 57.1213 69.8364C56.8488 69.9944 56.6194 70.217 56.4531 70.4845C55.9881 71.2208 55.7641 72.0838 55.8125 72.9534V77.7349H54.25V68.3594H55.8125V70.3126C55.9843 69.7083 56.3259 69.1659 56.7969 68.7501C57.2044 68.3964 57.7261 68.2021 58.2656 68.2032C58.5677 68.1896 58.8696 68.232 59.1562 68.3282V69.8751Z" fill="#F2F2F2"/>
<path d="M68.3125 73.4377H61.7031C61.6588 74.3112 61.9431 75.1697 62.5 75.8441C62.7896 76.1329 63.137 76.3574 63.5193 76.5028C63.9017 76.6482 64.3104 76.7113 64.7188 76.6879C65.778 76.6773 66.8024 76.3083 67.625 75.6409V77.0473C66.6589 77.684 65.515 77.9961 64.3594 77.9379C63.7763 77.9674 63.194 77.8678 62.6538 77.6463C62.1136 77.4248 61.629 77.0869 61.2344 76.6566C60.421 75.6419 60.0143 74.3608 60.0938 73.0627C60.0376 71.7614 60.479 70.4876 61.3281 69.5C61.7146 69.0535 62.1954 68.6986 62.7359 68.4608C63.2764 68.2229 63.8629 68.1082 64.4531 68.1249C64.9861 68.0951 65.5188 68.1864 66.0114 68.3921C66.5039 68.5978 66.9435 68.9125 67.2969 69.3125C68.0163 70.2612 68.3712 71.4368 68.2969 72.6252L68.3125 73.4377ZM66.75 72.172C66.7817 71.4479 66.5608 70.7354 66.125 70.1563C65.9112 69.9147 65.6456 69.7246 65.3479 69.6001C65.0503 69.4756 64.7284 69.42 64.4063 69.4375C64.07 69.4334 63.7366 69.4993 63.4272 69.6311C63.1179 69.763 62.8393 69.9578 62.6094 70.2032C62.0951 70.7472 61.7716 71.4437 61.6875 72.1876L66.75 72.172Z" fill="#F2F2F2"/>
</g>
<defs>
<clipPath id="clip0_867_7276">
<rect width="100" height="100" fill="white"/>
</clipPath>
</defs>
</svg>
