<svg width="512" height="512" viewBox="0 0 512 512" fill="none" xmlns="http://www.w3.org/2000/svg">
<g clip-path="url(#clip0_uzbekistan)">
<path d="M256 512C397.385 512 512 397.385 512 256C512 114.615 397.385 0 256 0C114.615 0 0 114.615 0 256C0 397.385 114.615 512 256 512Z" fill="#1EB53A"/>
<path d="M256 0C141.258 0 44.157 75.434 11.643 179.478H500.357C467.843 75.434 370.742 0 256 0Z" fill="#0099B5"/>
<path d="M11.643 332.522C44.157 436.566 141.258 512 256 512C370.742 512 467.843 436.566 500.357 332.522H11.643Z" fill="#1EB53A"/>
<path d="M0 256C0 282.46 4.013 307.983 11.457 332.002H500.543C507.987 307.983 512 282.46 512 256C512 229.54 507.987 204.017 500.543 179.998H11.457C4.013 204.017 0 229.54 0 256Z" fill="#F7F7F7"/>
<path d="M11.457 179.998C6.365 196.432 2.81 213.527 0.934 231.107H511.066C509.19 213.527 505.635 196.432 500.543 179.998H11.457Z" fill="#CE1126"/>
<path d="M0.934 280.893C2.81 298.473 6.365 315.568 11.457 332.002H500.543C505.635 315.568 509.19 298.473 511.066 280.893H0.934Z" fill="#CE1126"/>
<path d="M135.696 102.4C135.696 130.374 113.027 153.043 85.043 153.043C57.07 153.043 34.4 130.374 34.4 102.4C34.4 74.427 57.07 51.757 85.043 51.757C113.027 51.757 135.696 74.427 135.696 102.4Z" fill="#F7F7F7"/>
<path d="M153.043 102.4C153.043 127.611 132.611 148.043 107.4 148.043C82.189 148.043 61.757 127.611 61.757 102.4C61.757 77.189 82.189 56.757 107.4 56.757C132.611 56.757 153.043 77.189 153.043 102.4Z" fill="#0099B5"/>
<path d="M178.087 60.509L183.057 75.802H199.136L186.128 85.253L191.099 100.546L178.087 91.095L165.078 100.546L170.046 85.253L157.039 75.802H173.119L178.087 60.509Z" fill="#F7F7F7"/>
<path d="M234.435 60.509L239.404 75.802H255.484L242.476 85.253L247.446 100.546L234.435 91.095L221.426 100.546L226.394 85.253L213.386 75.802H229.466L234.435 60.509Z" fill="#F7F7F7"/>
<path d="M206.261 103.322L211.23 118.615H227.31L214.302 128.066L219.272 143.359L206.261 133.908L193.252 143.359L198.22 128.066L185.212 118.615H201.292L206.261 103.322Z" fill="#F7F7F7"/>
<path d="M262.609 103.322L267.578 118.615H283.658L270.65 128.066L275.62 143.359L262.609 133.908L249.6 143.359L254.568 128.066L241.56 118.615H257.64L262.609 103.322Z" fill="#F7F7F7"/>
</g>
<defs>
<clipPath id="clip0_uzbekistan">
<rect width="512" height="512" fill="white"/>
</clipPath>
</defs>
</svg>
