<svg width="100%" height="253" viewBox="0 0 1918 253" fill="none" xmlns="http://www.w3.org/2000/svg">
<path d="M1918 98.581V253H0V102.058L2.29263 98.4751L6.3312 92.1748L6.631 82.3626L1.58721 71.7562L8.42984 67.6266L17.0713 60.1263L28.217 61.0087L37.2818 57.5673L46.8755 56.3673L55.4288 52.4318L57.7744 48.4081L61.1428 45.8138L66.2571 38.4017L75.5335 35.5075L84.8451 32.7897L93.7687 29.0307L105.144 26.3129L101.934 36.5134L112.374 35.7545L122.885 40.6783L133.713 38.2076L144.7 38.3841L154.629 32.4897L154.418 35.5604L165.405 33.0721L174.24 27.4777L182.758 26.2423L186.55 21.9715L196.99 23.6128L205.349 22.5363L209.635 18.2831L217.747 14.1535L226.724 11.0652L236.335 13.7476L245.788 12.6005L254.518 16.6948L264.041 15.3536L274.922 23.0481L277.003 19.395L286.509 18.442L296.914 19.4832L307.037 16.0772L317.618 19.3773L327.494 15.6536L337.582 13.7653L342.132 21.1774L349.68 26.9659L359.661 22.201L369.608 26.4188L376.362 31.2014L384.651 27.4953L394.404 31.2543L405.461 32.4897L415.796 29.1542L424.631 25.5541L431.209 19.5185L439.568 14.3477L449.004 13.2006L457.874 7.8356L470.784 9.60039L480.13 12.0005L490.888 15.7948L500.147 12.1946L508.383 6.56495L517.271 2.54123L526.195 1.85297L535.983 6.70613L540.779 17.3125L546.881 27.5483L556.352 22.9775L563.477 26.7012L573.194 26.4012L583.281 28.9248L593.016 27.3189L602.733 23.1363L603.968 24.3893L610.352 20.2068L615.995 13.9594L623.385 9.0886L632.45 11.0299L639.31 17.0125L648.41 20.0656L657.316 12.1593L667.156 6.26494L677.72 -6.10352e-05L685.85 5.92963L690.083 13.1476L695.479 20.3126L703.504 11.7181L711.016 19.4655L720.24 21.7598L728.723 26.2247L738.669 26.3129L748.069 27.7424L757.204 29.9131L765.793 34.6251L775.404 34.4662L784.628 36.884L794.133 34.078L801.452 35.6134L811.504 30.619L820.622 22.8539L831.944 27.8306L842.331 27.6189L853.318 23.9658L862.665 31.0073L870.46 37.1664L881.412 39.4782L882.347 44.5608L890.988 43.0255L899.153 45.2491L897.231 51.5141L908.395 50.1729L916.648 48.3198L925.095 43.6608L934.971 41.296L945.764 44.2785L954.953 43.0255L961.566 44.5432L967.298 48.7434L973.329 54.8319L981.953 54.2142L987.896 47.7374L993.998 54.1613L1004.16 47.3139L1014.21 42.549L1025.72 44.0667L1029.29 51.3906L1039.99 55.8555L1032.92 60.7969L1039.45 65.7912L1048.44 67.8384L1057.35 66.1971L1063.59 60.0557L1073.57 60.7439L1083.99 59.5086L1094.7 55.6437L1104.8 61.2204L1115.67 59.8792L1118.54 65.7736L1123.44 70.7679L1125.15 69.5855L1129.7 65.3324L1137.39 61.1851L1147.23 66.4619L1157.71 69.6914L1167.29 75.0211L1177.07 80.1213L1185.75 82.9803L1194.74 84.1274L1203.81 80.3507L1212.03 81.6214L1213.49 80.7743L1222.91 82.7685L1233.14 82.6626L1243.37 79.4683L1253.59 77.0682L1263.95 79.5389L1268.88 71.5974L1276.47 66.8325L1286.15 67.2384L1293.86 62.6676L1301.65 66.9913L1309.06 71.668L1317.01 73.2739L1319.27 73.874L1321.51 72.1092L1322.57 70.8385L1333.71 65.9677L1336.71 70.062L1337.51 74.0681L1346.09 75.4976L1357.5 80.1919L1366.37 73.6269L1376 69.7797L1387.17 73.4857L1395.97 64.2735L1406.67 67.0442L1412.53 78.0212L1415.28 73.0445L1427.62 77.0682L1433.9 68.8973L1443.71 65.9324L1450.43 58.6262L1460.88 57.1261L1463.9 56.8791L1472.4 61.4499L1483.1 58.5027L1485.82 61.8911L1491.48 59.791L1496.07 62.6852L1502.52 68.9149L1508.24 75.0917L1512.03 83.8097L1520.56 87.8334L1521.97 74.3328L1532.19 70.0267L1538.92 63.7794L1549.82 64.8559L1556.65 75.3917L1567.37 77.4212L1577.91 79.2566L1588.46 81.7802L1597.68 79.2919L1604.93 71.2797L1614.93 71.8974L1622.66 65.703L1632.8 62.8087L1638.93 73.5916L1649.55 73.3445L1660.54 66.9383L1662.18 79.7154L1673.39 76.8388L1683.94 73.4857L1688.72 64.9971L1697.4 62.6852L1705.12 59.438L1713.29 55.379L1721.56 50.8611L1726.19 40.3783L1730.78 47.7904L1739.76 51.2141L1742.44 60.691L1749.28 66.4266L1756.67 71.4209L1768.48 67.3972L1768.34 65.2089L1775.54 66.0736L1782.75 72.0739L1793.69 70.2561L1800.46 63.497L1808.01 54.0907L1819.47 54.1966L1829.75 58.2203L1829.12 65.0147L1834.55 53.2083L1838.64 43.1843L1847.7 37.3781L1856.7 41.1019L1866.65 38.0488L1875.94 43.0784L1886.03 37.7664L1896.2 40.5724L1903.33 50.014L1908 60.3027L1915.5 68.6855L1913.4 78.8507L1915.32 87.4981L1914.42 87.9746L1917.96 98.4751L1918 98.581Z" fill="white"/>
</svg>
