<svg width="77" height="77" viewBox="0 0 77 77" fill="none" xmlns="http://www.w3.org/2000/svg">
<path d="M29.153 6.88953C31.537 2.55498 37.765 2.55505 40.1491 6.88953L54.1667 32.3749L54.3454 32.701L54.0856 32.9657C53.0661 34.0066 52.0364 34.8629 50.9909 35.5477L50.5388 35.8436L50.279 35.371L35.9001 9.22644C35.3587 8.24242 33.9446 8.2426 33.403 9.22644L8.15106 55.1376C7.62874 56.0873 8.31623 57.2499 9.40009 57.2499H39.3786L39.4518 57.662C39.683 58.9656 40.0041 60.2255 40.4186 61.4374L40.6452 62.0995H9.40009C4.62732 62.0995 1.60195 56.9826 3.90204 52.8007L29.153 6.88953ZM34.6511 45.7001C36.5218 45.7001 38.0386 47.2161 38.0388 49.0868C38.0388 50.9577 36.5219 52.4745 34.6511 52.4745C32.7802 52.4744 31.2634 50.9576 31.2634 49.0868C31.2636 47.2161 32.7804 45.7001 34.6511 45.7001ZM34.6511 22.5995C35.9902 22.5995 37.0757 23.6852 37.0759 25.0243V40.4247C37.0758 41.764 35.9903 42.8495 34.6511 42.8495C33.3118 42.8494 32.2263 41.7639 32.2263 40.4247V25.0243C32.2265 23.6852 33.3119 22.5995 34.6511 22.5995Z" fill="#212121" stroke="#212121"/>
<path d="M64.2202 38.719C65.4618 39.6582 66.7444 40.4054 68.0701 40.9624C69.3149 41.4854 70.5977 41.8408 71.9202 42.0303C72.677 42.1387 73.4469 42.1928 74.2301 42.1928C74.9744 42.1928 75.5953 42.7427 75.7389 43.4737L75.7701 43.797V53.426C75.7701 63.7514 70.7151 70.7709 60.8571 74.1938C60.541 74.3036 60.1993 74.3036 59.8832 74.1938C57.0909 73.2243 54.684 71.9662 52.6681 70.4261C51.1865 69.2942 49.9161 68.01 48.8593 66.5761C47.9881 65.394 47.2619 64.1102 46.6822 62.7261C45.6567 60.2776 45.0892 57.5154 44.987 54.4475L44.9702 53.426V43.797C44.9702 42.911 45.6596 42.1928 46.5102 42.1928C51.2202 42.1928 55.455 40.2326 59.2838 36.2458C59.8856 35.6191 60.8613 35.6197 61.4625 36.247C62.3586 37.1823 63.2776 38.006 64.2202 38.719Z" fill="#212121"/>
</svg>
